<?xml version="1.0"?><svg id="Layer_1" xmlns="http://www.w3.org/2000/svg" viewBox="0 0 3150.26 1226.54"><defs></defs><path class="cls-1" d="M1203.63,595.73c-13.4-28.05-30.41-51.51-52.15-73.56-69.08-70.06-165.75-101.75-263.22-87.54-37.38,5.45-71.82,16.4-104.65,34.82-33.55,18.82-62.52,42.43-86.85,72.41-35.09,43.23-56.42,95.42-58.46,151.45-2.51,68.87,19.65,137.5,48.16,199.13,1.98,4.27,20.2,43,22.38,42.47.06-.01,1.64-1.27,2.5-2.22,48.1-53.01,81.58-108.3,115.13-173.37,3.63-7.04-3.7-9.94-11.64-23.7-13.47-23.36-20.64-49.45-18.43-76.73,3.06-37.81,20.87-70.91,49.82-95.21,38.29-32.13,93.71-40.2,140.06-20.73,32.94,13.83,58.98,40.32,73.06,73.15,19.11,44.54,12.19,96.56-18.7,134.75-1.94,2.4-1.26,6.81.18,9.7,31.61,63.35,68.38,121.72,117.64,174.65,21.27-40.37,36.57-72.99,50.49-115.61,23.43-76.13,29.85-150.24-5.33-223.86Z"></path><path class="cls-3" d="M1090.67,909.68c-52.48-72.1-93.93-154.91-125.79-238.26-10.37-27.12-19-53.18-25.95-81.4-.61-2.46-3.4-5.67-5.34-5.59-1.67.07-4.87,2.66-5.37,4.39-4.89,16.94-8.79,33.32-14.55,49.89-7.91,22.77-15.67,44.68-25.39,66.67l-17.44,39.42c-10.46,23.63-21.91,45.9-34.09,68.68-28.16,52.66-68.27,109.57-107.31,153.08-1.14,1.27-1.38,4.23-.78,5.22l18.89,31.58c33.6,56.16,105.52,158.96,151.29,204.3,13.2,13.08,30.21,25.79,48.82,14.54,8.9-5.38,16.58-12.68,23.63-20.39l16.86-18.42,48.91-60.06c25.51-31.32,47.26-64.13,68.4-98.54l32.35-52.65c.77-1.25.5-4.75-.43-5.79-16.7-18.72-31.94-36.4-46.7-56.67ZM943.68,703.76h-21.13l2.67-25.76h15.24l3.22,25.76ZM919.55,726.25s27.26,0,27.22,0l4.83,46.07s-4,.06-5.06,0c0,0-32.08,0-32.04,0l5.04-46.07ZM911.56,806.82c.05,0,42.87,0,42.83,0l10.98,95.1s-64.33,0-64.35,0l10.55-95.1ZM881.17,1083.35l10.66-95.52,3.75-37.36s75.12,0,75.11,0l13.57,132.88s-103.09,0-103.08,0Z"></path><path class="cls-2" d="M1274.94,976.91l113.66-414.38h123.72l113.66,414.38h-73.41l-24.86-94.71h-154.5l-24.86,94.71h-73.4ZM1389.78,817.08h121.35l-55.65-210.15h-10.06l-55.65,210.15Z"></path><path class="cls-2" d="M1752.65,985.2c-37.89,0-69.07-8.29-93.53-24.86-24.47-16.58-39.27-40.85-44.4-72.81l62.75-15.98c2.76,15,7.7,26.84,14.8,35.52,7.1,8.69,15.88,14.8,26.34,18.35,10.45,3.55,21.8,5.33,34.04,5.33,18.55,0,32.46-3.35,41.73-10.06,9.27-6.71,13.91-15.19,13.91-25.45s-4.44-18.55-13.32-23.68c-8.88-5.12-22.4-9.47-40.55-13.02l-18.35-2.96c-20.13-3.94-38.48-9.37-55.05-16.28-16.58-6.9-29.89-16.37-39.96-28.41-10.06-12.03-15.09-27.32-15.09-45.88,0-28.41,10.55-50.32,31.67-65.71,21.11-15.39,48.84-23.09,83.17-23.09s59.79,7.31,81.1,21.9c21.31,14.61,35.12,34.14,41.44,58.6l-62.75,18.94c-3.16-16.57-10.06-28.31-20.72-35.22-10.66-6.9-23.68-10.36-39.07-10.36s-27.92,2.77-36.41,8.29c-8.49,5.53-12.73,13.42-12.73,23.68s4.34,17.96,13.02,23.09c8.68,5.13,20.32,8.88,34.93,11.25l18.35,3.55c21.7,3.95,41.33,9.08,58.9,15.39,17.55,6.32,31.47,15.39,41.73,27.23,10.26,11.84,15.39,27.82,15.39,47.95,0,30.39-10.95,53.78-32.85,70.15-21.9,16.37-51.41,24.57-88.5,24.57Z"></path><path class="cls-2" d="M1893.54,1095.3v-410.82h66.89v38.48h10.06c6.71-12.23,17.46-23.09,32.26-32.56,14.8-9.47,36.01-14.21,63.64-14.21,23.68,0,45.67,5.83,66,17.46,20.32,11.64,36.6,28.71,48.84,51.2,12.23,22.5,18.35,49.53,18.35,81.1v9.47c0,31.58-6.12,58.6-18.35,81.1-12.24,22.5-28.41,39.57-48.54,51.2-20.13,11.64-42.23,17.46-66.3,17.46-18.55,0-34.04-2.17-46.47-6.51-12.43-4.34-22.49-10.06-30.19-17.17-7.7-7.1-13.72-14.21-18.06-21.31h-10.06v155.09h-68.08ZM2046.26,926c24.86,0,45.29-7.99,61.27-23.97,15.98-15.98,23.98-38.77,23.98-68.37v-5.92c0-29.99-8.09-52.88-24.27-68.67-16.19-15.78-36.51-23.68-60.97-23.68s-44.9,7.9-61.27,23.68c-16.38,15.79-24.57,38.68-24.57,68.67v5.92c0,29.6,8.19,52.39,24.57,68.37,16.37,15.98,36.79,23.97,61.27,23.97Z"></path><path class="cls-2" d="M2222.67,976.91v-414.38h68.08v160.42h10.06c3.15-6.71,8.29-13.41,15.39-20.13,7.1-6.71,16.47-12.23,28.12-16.57,11.64-4.34,26.34-6.51,44.1-6.51,22.49,0,42.42,5.03,59.79,15.1,17.36,10.06,30.88,24.18,40.55,42.33,9.66,18.16,14.5,39.66,14.5,64.52v175.22h-68.08v-169.89c0-23.68-5.83-41.34-17.46-52.98-11.64-11.64-28.12-17.46-49.43-17.46-24.08,0-43.02,7.99-56.83,23.97-13.82,15.98-20.72,38.77-20.72,68.37v147.99h-68.08Z"></path><path class="cls-2" d="M2628.16,985.2c-20.52,0-39.07-3.65-55.64-10.95-16.58-7.3-29.7-17.85-39.37-31.67-9.68-13.81-14.5-30.78-14.5-50.91s4.83-36.3,14.5-49.73c9.66-13.41,22.99-23.58,39.96-30.49,16.96-6.9,36.3-10.36,58.01-10.36h84.65v-17.76c0-15.39-4.74-27.91-14.21-37.59-9.47-9.67-24.27-14.5-44.4-14.5s-34.63,4.64-44.69,13.91c-10.06,9.28-16.68,21.22-19.83,35.81l-62.75-20.72c4.73-15.39,12.33-29.39,22.79-42.03,10.45-12.63,24.36-22.79,41.73-30.49,17.36-7.7,38.67-11.54,63.93-11.54,38.27,0,68.37,9.57,90.27,28.71,21.9,19.15,32.85,46.87,32.85,83.17v114.84c0,11.84,5.52,17.76,16.58,17.76h24.86v56.24h-47.95c-14.21,0-25.85-3.55-34.93-10.66-9.08-7.1-13.61-16.77-13.61-29.01v-1.18h-10.06c-2.37,5.53-6.51,12.24-12.43,20.13-5.92,7.9-14.9,14.71-26.94,20.42-12.04,5.72-28.32,8.58-48.84,8.58ZM2639.4,929.56c22.5,0,40.85-6.41,55.05-19.24,14.21-12.82,21.31-30.09,21.31-51.8v-5.92h-80.51c-14.61,0-26.44,3.16-35.52,9.47-9.08,6.32-13.61,15.59-13.61,27.82s4.74,21.41,14.21,28.71c9.47,7.31,22.5,10.95,39.07,10.95Z"></path><path class="cls-2" d="M2838.3,976.91v-414.38h68.08v414.38h-68.08Z"></path><path class="cls-2" d="M3060.28,976.84c-18.94,0-34.04-5.62-45.28-16.87-11.25-11.25-16.87-26.54-16.87-45.88v-173.45h-76.36v-56.24h76.36v-94.12h68.08v94.12h84.06v56.24h-84.06v162.2c0,11.84,5.52,17.76,16.57,17.76h58.6v56.24h-81.1Z"></path></svg>