<svg xmlns="http://www.w3.org/2000/svg" viewBox="618 411 630 835"><path fill="#d32f2f" d="M1203.63,595.73c-13.4-28.05-30.41-51.51-52.15-73.56-69.08-70.06-165.75-101.75-263.22-87.54-37.38,5.45-71.82,16.4-104.65,34.82-33.55,18.82-62.52,42.43-86.85,72.41-35.09,43.23-56.42,95.42-58.46,151.45-2.51,68.87,19.65,137.5,48.16,199.13,1.98,4.27,20.2,43,22.38,42.47.06-.01,1.64-1.27,2.5-2.22,48.1-53.01,81.58-108.3,115.13-173.37,3.63-7.04-3.7-9.94-11.64-23.7-13.47-23.36-20.64-49.45-18.43-76.73,3.06-37.81,20.87-70.91,49.82-95.21,38.29-32.13,93.71-40.2,140.06-20.73,32.94,13.83,58.98,40.32,73.06,73.15,19.11,44.54,12.19,96.56-18.7,134.75-1.94,2.4-1.26,6.81.18,9.7,31.61,63.35,68.38,121.72,117.64,174.65,21.27-40.37,36.57-72.99,50.49-115.61,23.43-76.13,29.85-150.24-5.33-223.86Z"></path><path fill="#f9a825" d="M1090.67,909.68c-52.48-72.1-93.93-154.91-125.79-238.26-10.37-27.12-19-53.18-25.95-81.4-.61-2.46-3.4-5.67-5.34-5.59-1.67.07-4.87,2.66-5.37,4.39-4.89,16.94-8.79,33.32-14.55,49.89-7.91,22.77-15.67,44.68-25.39,66.67l-17.44,39.42c-10.46,23.63-21.91,45.9-34.09,68.68-28.16,52.66-68.27,109.57-107.31,153.08-1.14,1.27-1.38,4.23-.78,5.22l18.89,31.58c33.6,56.16,105.52,158.96,151.29,204.3,13.2,13.08,30.21,25.79,48.82,14.54,8.9-5.38,16.58-12.68,23.63-20.39l16.86-18.42,48.91-60.06c25.51-31.32,47.26-64.13,68.4-98.54l32.35-52.65c.77-1.25.5-4.75-.43-5.79-16.7-18.72-31.94-36.4-46.7-56.67ZM943.68,703.76h-21.13l2.67-25.76h15.24l3.22,25.76ZM919.55,726.25s27.26,0,27.22,0l4.83,46.07s-4,.06-5.06,0c0,0-32.08,0-32.04,0l5.04-46.07ZM911.56,806.82c.05,0,42.87,0,42.83,0l10.98,95.1s-64.33,0-64.35,0l10.55-95.1ZM881.17,1083.35l10.66-95.52,3.75-37.36s75.12,0,75.11,0l13.57,132.88s-103.09,0-103.08,0Z"></path></svg>